<svg width="47" height="47" viewBox="0 0 47 47" fill="none" xmlns="http://www.w3.org/2000/svg">
<path d="M37.9518 36.5163C37.9538 36.949 37.828 37.3725 37.5904 37.7333C37.3528 38.094 37.014 38.3757 36.6171 38.5427C36.2201 38.7097 35.7827 38.7544 35.3604 38.6712C34.9381 38.5881 34.5499 38.3807 34.2449 38.0755C33.9399 37.7702 33.7319 37.3808 33.6472 36.9566C33.5625 36.5324 33.6049 36.0924 33.7691 35.6925C33.9334 35.2926 34.2119 34.9506 34.5696 34.71C34.9273 34.4694 35.3479 34.341 35.7782 34.341C36.0631 34.3401 36.3453 34.3957 36.6087 34.5046C36.8722 34.6135 37.1117 34.7735 37.3136 34.9755C37.5155 35.1776 37.6758 35.4177 37.7853 35.682C37.8948 35.9464 37.9514 36.2299 37.9518 36.5163ZM37.4059 31.715H34.036V22.1429C34.0347 21.6016 33.9272 21.0658 33.7199 20.5662C33.5125 20.0666 33.2093 19.6129 32.8274 19.2312C32.4456 18.8495 31.9927 18.5472 31.4947 18.3416C30.9966 18.136 30.4631 18.0311 29.9247 18.0328C29.1888 18.0201 28.4581 18.1596 27.7781 18.4428V15.3933C28.7152 15.0006 29.7216 14.8024 30.7369 14.8105C32.4997 14.8087 34.1915 15.5095 35.4415 16.7594C36.6915 18.0092 37.3979 19.7063 37.4059 21.4788V31.715ZM25.1799 31.715H21.81V15.2002H25.1799V31.715ZM19.2084 31.6168C18.2738 32.005 17.2709 32.1998 16.2598 32.1894C14.4951 32.1939 12.8008 31.4943 11.5486 30.2442C10.2964 28.994 9.58865 27.2954 9.58063 25.5211V15.2849H12.9505V24.857C12.9519 25.3984 13.0593 25.9342 13.2666 26.4338C13.474 26.9334 13.7773 27.387 14.1591 27.7687C14.5409 28.1504 14.9938 28.4527 15.4918 28.6583C15.9899 28.8639 16.5234 28.9689 17.0618 28.9671C17.7974 28.9796 18.5278 28.8413 19.2084 28.5605V31.6168ZM13.392 10.5039C13.394 10.9366 13.2682 11.3601 13.0306 11.7209C12.793 12.0816 12.4542 12.3633 12.0572 12.5303C11.6602 12.6972 11.2229 12.742 10.8006 12.6588C10.3783 12.5756 9.99004 12.3683 9.68505 12.063C9.38006 11.7578 9.17204 11.3684 9.08735 10.9442C9.00266 10.52 9.0451 10.08 9.20932 9.68009C9.37353 9.28015 9.65211 8.93822 10.0098 8.69762C10.3674 8.45703 10.7881 8.32859 11.2184 8.32858C11.5032 8.32769 11.7855 8.38328 12.0489 8.49216C12.3124 8.60104 12.5519 8.76108 12.7538 8.96312C12.9556 9.16516 13.1159 9.40524 13.2254 9.66963C13.3349 9.93401 13.3915 10.2175 13.392 10.5039ZM47 23.5152C47 10.5209 36.4792 0 23.4983 0C10.5175 0 0 10.5209 0 23.4983C0.007955 26.5928 0.622093 29.6555 1.80734 32.5114C2.99259 35.3674 4.72574 37.9605 6.9078 40.1429C9.08987 42.3253 11.6781 44.0541 14.5247 45.2306C17.3714 46.4072 20.4206 47.0084 23.4983 46.9999C36.4792 46.9999 47 36.4791 47 23.4983" fill="#2B0A57"/>
</svg>
